<?xml version="1.0" standalone="no"?>
<!DOCTYPE svg PUBLIC "-//W3C//DTD SVG 20010904//EN"
 "http://www.w3.org/TR/2001/REC-SVG-20010904/DTD/svg10.dtd">
<svg version="1.0" xmlns="http://www.w3.org/2000/svg"
 width="1024.000000pt" height="1024.000000pt" viewBox="0 0 1024.000000 1024.000000"
 preserveAspectRatio="xMidYMid meet">

<g transform="translate(0.000000,1024.000000) scale(0.100000,-0.100000)"
fill="#000000" stroke="none">
<path d="M6750 5883 c-25 -2 -79 -8 -120 -15 l-75 -12 121 -12 c303 -29 531
-167 638 -387 30 -60 55 -169 57 -242 l0 -50 15 40 c61 166 21 372 -97 494
-120 124 -326 195 -539 184z"/>
<path d="M2813 5248 c-54 -81 -61 -161 -21 -241 20 -40 46 -60 172 -135 100
-59 121 -86 121 -156 0 -84 -63 -154 -148 -163 -90 -10 -191 46 -219 123 -7
19 -16 33 -22 31 -5 -2 -18 -27 -28 -56 -10 -30 -23 -60 -29 -67 -13 -16 30
-45 106 -71 70 -23 224 -24 290 0 110 38 175 130 175 246 0 111 -34 152 -213
254 -48 28 -90 60 -100 77 -29 48 -18 121 24 166 l21 22 -53 3 c-50 4 -53 3
-76 -33z"/>
<path d="M3173 5260 c14 -11 32 -36 38 -55 7 -19 16 -35 20 -35 3 0 15 21 25
47 11 27 21 51 22 55 2 5 -27 8 -64 8 l-67 0 26 -20z"/>
<path d="M3622 5085 c-18 -8 -46 -24 -62 -35 -37 -26 -41 -25 -34 8 l6 27 -61
0 c-34 0 -61 -1 -61 -1 0 -17 -112 -553 -145 -694 -25 -107 -45 -195 -45 -195
0 0 32 0 72 1 l71 0 34 184 c18 101 35 186 38 188 2 3 18 -7 34 -21 44 -37 94
-50 170 -45 165 12 279 140 289 324 7 135 -30 213 -123 255 -48 22 -137 24
-183 4z m140 -74 c34 -38 43 -100 28 -189 -14 -87 -56 -176 -103 -221 -30 -28
-46 -35 -91 -39 -53 -4 -57 -3 -91 31 -36 36 -41 55 -36 142 7 138 76 269 161
304 43 18 102 6 132 -28z"/>
<path d="M4177 5090 c-62 -16 -94 -37 -101 -67 -4 -15 -9 -36 -12 -45 -8 -27
25 -22 48 7 44 57 141 74 192 34 21 -17 26 -29 26 -67 0 -85 -10 -93 -136
-118 -126 -25 -159 -39 -202 -88 -47 -54 -54 -135 -17 -193 49 -73 191 -73
274 1 19 17 25 18 29 7 11 -33 51 -61 86 -61 51 0 119 29 112 47 -3 8 -6 17
-6 19 0 3 -9 0 -19 -6 -25 -13 -48 -4 -57 22 -3 12 11 105 32 207 l38 186 -20
40 c-27 55 -70 77 -158 81 -39 2 -88 -1 -109 -6z m120 -327 c-10 -80 -26 -121
-61 -158 -28 -29 -40 -35 -75 -35 -56 0 -81 26 -81 84 0 71 48 115 155 142 28
7 54 13 59 13 5 1 6 -20 3 -46z"/>
<path d="M4777 5090 c-210 -53 -318 -331 -195 -501 61 -85 211 -117 350 -76
53 16 57 19 72 64 9 26 16 48 16 50 0 10 -30 1 -41 -13 -19 -23 -78 -51 -126
-59 -58 -9 -122 20 -154 71 -20 33 -24 51 -24 124 0 103 21 170 71 229 46 53
81 71 139 71 57 0 98 -23 122 -67 10 -18 22 -33 28 -33 5 0 20 25 31 55 l21
55 -51 16 c-63 19 -208 27 -259 14z"/>
<path d="M5313 5081 c-138 -47 -213 -162 -213 -324 0 -70 4 -92 26 -136 28
-55 74 -93 135 -112 54 -16 184 -13 243 6 48 15 56 22 70 58 9 22 14 42 12 44
-2 2 -30 -11 -62 -28 -52 -27 -67 -30 -125 -27 -53 3 -73 9 -102 31 -43 33
-70 97 -65 158 l3 44 208 3 207 2 0 58 c0 86 -17 132 -64 177 -68 65 -168 83
-273 46z m156 -36 c25 -13 36 -30 55 -89 4 -11 4 -39 0 -63 l-6 -43 -139 0
c-77 0 -139 2 -139 4 0 2 7 23 15 47 45 128 133 187 214 144z"/>
<path d="M5738 4628 c-17 -49 31 -113 93 -123 75 -13 172 16 182 54 4 18 3 18
-39 4 -56 -19 -95 -3 -109 45 -9 31 -10 32 -66 32 -35 0 -59 -5 -61 -12z"/>
<path d="M6090 4632 c0 -23 54 -81 96 -102 43 -22 62 -25 149 -25 104 1 172
17 185 45 4 8 12 25 18 37 18 33 17 33 -40 3 -100 -53 -187 -48 -257 16 -34
30 -45 34 -95 34 -31 0 -56 -3 -56 -8z"/>
<path d="M6672 4613 c-6 -16 -15 -44 -20 -63 l-9 -35 68 0 67 0 6 35 c3 19 6
47 6 63 0 26 -2 27 -54 27 -49 0 -54 -2 -64 -27z"/>
</g>
</svg>
